<?xml version="1.0" standalone="no"?>
<!DOCTYPE svg PUBLIC "-//W3C//DTD SVG 20010904//EN"
 "http://www.w3.org/TR/2001/REC-SVG-20010904/DTD/svg10.dtd">
<svg version="1.0" xmlns="http://www.w3.org/2000/svg"
 width="900.000000pt" height="900.000000pt" viewBox="0 0 900.000000 900.000000"
 preserveAspectRatio="xMidYMid meet">

<g transform="translate(0.000000,900.000000) scale(0.100000,-0.100000)"
fill="#000000" stroke="none">
<path d="M725 6411 c-100 -45 -140 -164 -90 -262 30 -57 78 -86 182 -109 601
-132 1078 -365 1573 -768 142 -115 431 -408 561 -567 260 -318 462 -631 650
-1007 84 -168 190 -414 229 -533 39 -117 122 -177 225 -161 76 13 101 40 274
300 91 135 168 246 172 246 5 0 82 -109 172 -242 91 -134 173 -251 184 -260
28 -25 88 -48 126 -48 42 0 131 44 151 75 9 13 38 84 66 158 221 593 613 1228
1037 1678 548 583 1162 945 1884 1113 80 19 159 41 175 49 119 62 126 244 12
323 -37 26 -49 29 -112 28 -44 -1 -125 -15 -214 -38 -575 -145 -1070 -393
-1566 -784 l-55 -44 -58 35 c-87 53 -345 179 -453 222 -313 125 -621 203 -980
247 -134 16 -601 16 -735 0 -522 -64 -967 -207 -1397 -449 l-96 -54 -84 67
c-459 368 -1008 636 -1578 770 -166 39 -199 41 -255 15z m4230 -750 c266 -41
560 -123 795 -223 88 -38 268 -126 298 -146 11 -7 -12 -37 -92 -121 -250 -265
-496 -595 -701 -941 -74 -125 -247 -460 -286 -552 -13 -32 -28 -58 -34 -58 -5
0 -82 118 -170 262 -88 144 -183 300 -211 346 l-51 83 -189 -308 c-103 -169
-200 -327 -215 -351 l-27 -43 -110 223 c-136 275 -218 419 -378 660 -180 270
-349 484 -554 701 -44 47 -80 87 -80 91 0 12 267 140 401 192 239 93 533 167
769 193 52 6 109 13 125 15 17 2 152 3 300 1 213 -2 300 -7 410 -24z"/>
<path d="M1984 5048 c-339 -330 -564 -639 -774 -1063 -152 -307 -252 -587
-320 -895 -49 -227 -62 -324 -49 -373 33 -125 158 -180 275 -122 71 36 91 72
115 206 68 388 173 709 340 1040 197 390 415 678 760 1002 l104 99 -65 60
c-82 76 -219 188 -231 188 -5 0 -75 -64 -155 -142z"/>
<path d="M6755 5106 c-55 -46 -120 -102 -145 -124 l-45 -40 50 -42 c95 -81
330 -325 419 -435 216 -269 444 -669 560 -981 80 -219 163 -540 191 -746 21
-155 208 -221 324 -114 68 63 74 113 36 320 -69 372 -182 710 -352 1049 -173
347 -357 615 -619 902 -104 113 -295 295 -310 295 -5 0 -54 -38 -109 -84z"/>
</g>
</svg>
