<svg role="img" viewBox="0 0 923 166"><title>Resource Guru</title><path class="text" d="M841.65 69.224c4.879-5.863 11.43-11.687 18.091-9.721 1.804.531 3.278 1.696 4.155 3.28a6.347 6.347 0 0 1 .473 5.135c-.569 1.711-1.808 3.11-3.488 3.939-1.074.531-2.679 1.179-4.182.699-6.091-1.961-10.862 1.765-15.05 5.96l-.003 35.347c0 .736-.597 1.335-1.332 1.335h-10.511V59.831h11.848l-.001 9.393zm-292.91.001c4.879-5.861 11.431-11.683 18.09-9.722 1.804.531 3.279 1.696 4.154 3.28a6.344 6.344 0 0 1 .475 5.135c-.57 1.711-1.809 3.11-3.488 3.939-1.075.533-2.677 1.178-4.182.699-6.09-1.956-10.862 1.766-15.05 5.961l-.003 35.346c0 .736-.598 1.335-1.332 1.335h-10.512V59.831h11.849l-.001 9.394zM246.587 53.788a.346.346 0 0 0-.345.347v28.592c0 .191.155.346.345.346h15.491c6.025 0 10.652-1.295 13.752-3.849 3.039-2.5 4.578-6.148 4.578-10.844 0-4.691-1.538-8.32-4.572-10.788-3.103-2.524-7.732-3.804-13.758-3.804h-15.491zm45.715 61.41H281.95a1.34 1.34 0 0 1-1.1-.575L266.32 93.86a.354.354 0 0 0-.31-.145c-1.494.096-2.715.145-3.634.145h-15.789a.346.346 0 0 0-.345.346v19.642a1.35 1.35 0 0 1-1.346 1.35h-9.55a1.35 1.35 0 0 1-1.346-1.35V44.151c0-.744.603-1.349 1.346-1.349h27.03c9.279 0 16.709 2.278 22.082 6.774 5.436 4.548 8.192 10.874 8.192 18.804 0 5.622-1.413 10.493-4.197 14.477-2.449 3.504-5.857 6.206-10.13 8.034a.367.367 0 0 0-.211.236.332.332 0 0 0 .049.286l15.24 21.656c.292.414.329.951.096 1.4a1.34 1.34 0 0 1-1.195.729zm21.604-41.567c-2.485 2.253-4.104 5.168-4.812 8.662-.024.12.031.21.066.254.066.08.162.126.265.126h30.494a.318.318 0 0 0 .253-.12.363.363 0 0 0 .07-.303c-.716-3.421-2.332-6.306-4.804-8.573-2.865-2.627-6.485-3.96-10.762-3.96-4.282 0-7.905 1.317-10.77 3.914zm12.394 42.314c-5.277 0-10.525-1.282-15.129-3.735-4.5-2.396-8.026-5.796-10.481-10.106-2.45-4.293-3.693-9.203-3.693-14.589 0-5.316 1.207-10.185 3.585-14.477 2.387-4.306 5.721-7.705 9.91-10.101 4.181-2.393 8.952-3.607 14.184-3.607 5.232 0 9.972 1.215 14.089 3.61h.001c4.121 2.399 7.388 5.801 9.709 10.109 2.309 4.293 3.479 9.262 3.479 14.767 0 .508-.108 1.818-.198 2.825a1.326 1.326 0 0 1-1.327 1.215h-40.98a.34.34 0 0 0-.267.13.3.3 0 0 0-.063.256c.794 3.596 2.624 6.579 5.439 8.866 3.319 2.698 7.444 4.054 12.309 4.006 5.762-.047 12.46-4.73 14.374-6.164a1.33 1.33 0 0 1 1.806.206l5.098 5.983c.453.532.42 1.333-.075 1.821-2.238 2.208-8.417 7.473-17.448 8.695-1.434.193-2.88.29-4.322.29zm317.649-42.314c-2.485 2.254-4.105 5.168-4.812 8.662a.307.307 0 0 0 .066.254.34.34 0 0 0 .265.126h30.494a.318.318 0 0 0 .252-.12.363.363 0 0 0 .071-.303c-.717-3.421-2.333-6.306-4.804-8.573-2.864-2.627-6.486-3.96-10.763-3.96-4.281 0-7.904 1.317-10.769 3.914zm12.394 42.314c-5.277 0-10.525-1.282-15.129-3.735-4.5-2.396-8.027-5.796-10.481-10.106-2.45-4.293-3.693-9.202-3.693-14.589 0-5.317 1.207-10.186 3.585-14.477 2.387-4.307 5.722-7.705 9.911-10.101 4.18-2.393 8.952-3.607 14.182-3.607 5.233 0 9.973 1.215 14.091 3.61 4.122 2.399 7.388 5.8 9.709 10.109 2.308 4.294 3.479 9.262 3.479 14.767 0 .508-.107 1.818-.197 2.825a1.327 1.327 0 0 1-1.328 1.215h-40.98a.338.338 0 0 0-.267.13.3.3 0 0 0-.063.256c.793 3.596 2.623 6.578 5.439 8.866 3.272 2.659 7.344 4.007 12.105 4.007l.204-.001c5.763-.047 12.459-4.73 14.375-6.164a1.328 1.328 0 0 1 1.805.206l5.098 5.983c.453.532.42 1.332-.075 1.821-2.238 2.208-8.417 7.473-17.448 8.695-1.435.193-2.879.29-4.322.29zM439.104 70.017c-3.179 0-6.064.726-8.574 2.155-2.501 1.428-4.504 3.489-5.954 6.125-1.464 2.656-2.206 5.758-2.206 9.218 0 3.462.742 6.564 2.206 9.218 1.452 2.641 3.458 4.721 5.962 6.179 2.51 1.461 5.392 2.201 8.566 2.201 3.175 0 6.057-.74 8.565-2.201 2.496-1.453 4.484-3.529 5.911-6.171 1.432-2.657 2.158-5.762 2.158-9.226 0-3.462-.726-6.567-2.159-9.228-1.424-2.635-3.41-4.692-5.902-6.115-2.509-1.429-5.394-2.155-8.573-2.155zm0 45.783c-5.428 0-10.381-1.229-14.721-3.649-4.357-2.429-7.809-5.826-10.261-10.094-2.451-4.261-3.694-9.153-3.694-14.542 0-5.388 1.243-10.281 3.694-14.544 2.454-4.27 5.909-7.65 10.268-10.045 4.34-2.386 9.291-3.596 14.714-3.596s10.359 1.21 14.669 3.598c4.321 2.396 7.758 5.775 10.213 10.044 2.451 4.263 3.693 9.157 3.693 14.543 0 5.386-1.242 10.278-3.693 14.542-2.454 4.268-5.888 7.663-10.208 10.091-4.307 2.422-9.243 3.652-14.674 3.652zm161.444-.001c-5.56 0-10.595-1.226-14.967-3.646-4.386-2.426-7.873-5.82-10.361-10.088-2.486-4.264-3.748-9.16-3.748-14.551 0-5.388 1.262-10.284 3.748-14.548 2.49-4.27 5.978-7.649 10.367-10.042 4.374-2.385 9.407-3.594 14.961-3.594 4.948 0 9.437 1.02 13.341 3.033 3.62 1.865 6.847 4.918 9.09 8.594a1.343 1.343 0 0 1-.427 1.817l-7.008 4.498a1.334 1.334 0 0 1-1.805-.358c-1.606-2.238-3.656-4.104-5.624-5.119-2.292-1.18-4.871-1.778-7.667-1.778-3.251 0-6.206.727-8.782 2.162-2.561 1.424-4.594 3.482-6.046 6.118-1.464 2.657-2.205 5.758-2.205 9.217 0 3.529.741 6.664 2.205 9.32 1.45 2.636 3.484 4.695 6.046 6.118 2.575 1.434 5.53 2.162 8.782 2.162 2.799 0 5.378-.599 7.667-1.779 1.942-1 3.993-2.889 5.627-5.181a1.338 1.338 0 0 1 1.797-.366l7 4.41c.616.388.812 1.206.438 1.822-2.269 3.728-5.493 6.815-9.081 8.695-3.905 2.047-8.395 3.084-13.348 3.084zm131.241.201c-7.212 0-13.807-1.615-19.604-4.798-5.81-3.19-10.437-7.644-13.754-13.238-3.316-5.593-4.998-11.973-4.998-18.965 0-6.987 1.681-13.383 4.997-19.011 3.318-5.63 7.965-10.087 13.811-13.244C718.072 43.596 724.717 42 731.99 42c5.708 0 10.969.954 15.641 2.837 4.246 1.712 8.452 4.627 11.843 8.206a1.348 1.348 0 0 1-.033 1.866l-5.955 5.955a1.327 1.327 0 0 1-1.841.029c-5.473-5.041-12.132-7.706-19.257-7.706-5.108 0-9.745 1.116-13.781 3.318-4.021 2.193-7.215 5.285-9.495 9.194-2.281 3.911-3.437 8.386-3.437 13.3 0 4.848 1.156 9.29 3.437 13.201 2.282 3.913 5.479 7.023 9.5 9.247 4.036 2.234 8.637 3.366 13.677 3.366 5.771 0 10.895-1.346 15.236-4.001V85.685l-12.52-1.458a1.334 1.334 0 0 1-1.177-1.328v-6.834c0-.736.597-1.336 1.331-1.336h24.209v31.753l-.409.341c-3.553 2.949-7.739 5.242-12.44 6.815-4.686 1.568-9.641 2.362-14.73 2.362zm-234.251-.369c-15.213 0-22.608-8.839-22.608-27.025V71.01l.056-9.975a1.33 1.33 0 0 1 .398-.945c.254-.252.581-.376.947-.384l9.347.099c.73 0 1.327.599 1.327 1.337v26.883c0 11.045 3.436 15.55 11.86 15.55 8.21 0 14.586-5.82 16.387-8.64a.326.326 0 0 0 .045-.174l.173-33.623c0-.734.598-1.333 1.331-1.333h9.175c.734 0 1.332.599 1.332 1.337v44.767l-.085 7.924a1.339 1.339 0 0 1-1.332 1.322h-.003l-8.067-.021a1.338 1.338 0 0 1-1.325-1.253l-.402-6.451c-2.766 2.715-9.106 8.201-18.556 8.201zm293.617 0c-15.213 0-22.608-8.839-22.608-27.025V71.01l.056-9.976a1.335 1.335 0 0 1 1.346-1.328l9.347.099c.729 0 1.327.599 1.327 1.337v26.883c0 11.045 3.436 15.551 11.859 15.551 8.21 0 14.587-5.822 16.388-8.641a.309.309 0 0 0 .045-.174l.173-33.623c0-.734.597-1.333 1.33-1.333h9.176c.735 0 1.331.599 1.331 1.337v44.767l-.085 7.924a1.337 1.337 0 0 1-1.332 1.322h-.003l-8.065-.021a1.338 1.338 0 0 1-1.326-1.253l-.402-6.451c-2.765 2.716-9.105 8.201-18.557 8.201zm102.074 0c-15.213 0-22.608-8.839-22.608-27.025V71.01l.056-9.975c.002-.358.144-.694.398-.945.255-.251.61-.367.947-.384l9.348.099c.729 0 1.326.599 1.326 1.337v26.883c0 11.045 3.436 15.55 11.86 15.55 8.212 0 14.587-5.82 16.387-8.64a.32.32 0 0 0 .045-.174l.174-33.623c0-.734.597-1.333 1.331-1.333h9.175c.735 0 1.332.599 1.332 1.337v44.767l-.086 7.924a1.338 1.338 0 0 1-1.332 1.322h-.003l-8.066-.021a1.339 1.339 0 0 1-1.326-1.253l-.401-6.451c-2.766 2.715-9.106 8.201-18.557 8.201zm-511.85.162c-4.55 0-13.644-.806-23.422-6.2a1.36 1.36 0 0 1-.551-1.79c.818-1.615 2.816-5.495 3.69-7.188.169-.329.457-.567.81-.669a1.343 1.343 0 0 1 1.057.132c4.054 2.369 13.304 5.07 17.363 5.07 8.611 0 12.449-1.759 12.449-5.703 0-4.677-6.342-5.834-13.686-7.173l-.485-.088c-8.858-1.571-20.994-3.722-20.994-16.229 0-10.064 8.958-16.568 22.822-16.568 5.099 0 13.613 1.504 20.255 4.806.324.162.564.444.674.792.109.347.074.73-.099 1.049-.881 1.644-2.984 5.497-3.87 7.12a1.337 1.337 0 0 1-1.816.522c-4.935-2.69-10.618-3.644-13.987-3.644-7.911 0-11.923 1.992-11.923 5.923 0 3.401 4.674 4.513 11.803 5.822l.185.034c10.186 1.879 22.862 4.217 22.862 17.081 0 10.898-8.217 16.901-23.137 16.901z"></path><path class="graphic" d="M114.005 16.596a19.67 19.67 0 0 1 1.171-3.198c.76-1.63 1.765-3.199 2.939-4.646 2.359-2.905 5.318-5.284 8.385-7.309l.446-.295a6.929 6.929 0 0 1 9.59 1.948 6.898 6.898 0 0 1-1.951 9.571 6.892 6.892 0 0 1-3.908 1.146c-2.764-.035-5.492.17-8.103.939a16.565 16.565 0 0 0-3.806 1.653 15.888 15.888 0 0 0-2.824 2.15c5.199 5.719 8.37 13.305 8.37 21.617 0 17.758-14.475 32.204-32.268 32.204S59.779 57.93 59.779 40.172c0-17.757 14.474-32.203 32.267-32.203 8.474 0 16.196 3.277 21.959 8.627zm-77.926 94.637c-.869 0-1.734.033-2.593.1-9.892.778-20.406 8.33-20.406 20.793 0 9.646 7.115 16.687 14.167 19.388 10.139 3.881 21.32-.929 31.906-6.187 7.055-3.505 15.097-8.326 22.54-13.467-13.212-10.1-30.068-20.627-45.614-20.627zm67.228 20.626c7.443 5.142 15.486 9.963 22.54 13.468 10.586 5.258 21.769 10.068 31.906 6.187 7.052-2.7 14.167-9.742 14.167-19.388 0-12.463-10.513-20.015-20.406-20.793-16.249-1.281-34.255 9.862-48.207 20.526zM149.878 166c-10.614 0-20.782-4.476-29.859-8.987-8.661-4.303-18.679-10.428-27.519-16.792-8.84 6.364-18.856 12.489-27.518 16.792-12.612 6.266-27.33 12.468-42.421 6.689C9.066 158.534 0 145.846 0 132.126c0-20.3 16.723-32.569 32.458-33.806 21.614-1.698 43.024 11.965 60.042 25.388 17.019-13.424 38.427-27.094 60.042-25.388C168.277 99.557 185 111.826 185 132.126c0 13.72-9.066 26.408-22.56 31.577-4.229 1.617-8.43 2.297-12.562 2.297zM92.046 21.024c-10.58 0-19.187 8.59-19.187 19.148 0 10.56 8.607 19.149 19.187 19.149 10.58 0 19.188-8.589 19.188-19.149 0-10.558-8.608-19.148-19.188-19.148z"></path></svg>
