<svg xmlns="http://www.w3.org/2000/svg" width="32" height="32"><path d="M35.0584 6.30714C36.592 8.06788 37.5275 10.4036 37.5275 12.9627C37.5275 18.4299 33.2575 22.8775 28.009 22.8775C22.7605 22.8775 18.4908 18.4299 18.4908 12.9627C18.4908 7.49549 22.7605 3.0479 28.009 3.0479C30.5087 3.0479 32.7864 4.05671 34.4866 5.70402C34.5721 5.3736 34.6867 5.04331 34.8318 4.71947C35.0562 4.21755 35.3526 3.73439 35.6989 3.28903C36.3945 2.39445 37.2676 1.66212 38.1721 1.03844L38.3039 0.947647C39.2439 0.299561 40.5105 0.568084 41.1326 1.54751C41.7548 2.52663 41.4973 3.84603 40.5571 4.49411C40.2018 4.73912 39.8009 4.85284 39.4045 4.84718C38.5891 4.83646 37.7843 4.89958 37.0141 5.13624C36.6292 5.25532 36.2525 5.41995 35.8916 5.64501C35.6004 5.82595 35.3201 6.04723 35.0584 6.30714ZM28.009 7.06711C24.8882 7.06711 22.3493 9.71185 22.3493 12.9627C22.3493 16.2138 24.8882 18.8583 28.009 18.8583C31.1298 18.8583 33.6691 16.2138 33.6691 12.9627C33.6691 9.71185 31.1298 7.06711 28.009 7.06711ZM11.4997 34.841C11.2433 34.841 10.9884 34.8511 10.7349 34.872C7.817 35.1113 4.71562 37.4366 4.71562 41.2737C4.71562 44.2435 6.81445 46.4113 8.89442 47.2428C11.8852 48.4377 15.1835 46.957 18.306 45.3381C20.3871 44.259 22.7595 42.7746 24.9549 41.1918C21.0576 38.082 16.0855 34.841 11.4997 34.841ZM31.3309 41.1915C33.5263 42.7746 35.8989 44.259 37.9798 45.3381C41.1023 46.957 44.4011 48.4377 47.3914 47.2428C49.4713 46.4116 51.5702 44.2435 51.5702 41.2737C51.5702 37.4366 48.4691 35.1113 45.5509 34.872C40.7576 34.4775 35.4462 37.9082 31.3309 41.1915ZM45.0682 51.7029C41.9374 51.7029 38.938 50.3248 36.2604 48.9361C33.7055 47.611 30.7504 45.7254 28.1429 43.766C25.5354 45.7254 22.5809 47.611 20.0256 48.9361C16.3052 50.8652 11.9638 52.7746 7.51235 50.9952C3.53159 49.4044 0.857178 45.4977 0.857178 41.2737C0.857178 35.0235 5.79018 31.2463 10.4317 30.8653C16.8074 30.3425 23.123 34.5493 28.1429 38.6819C33.1631 34.549 39.4781 30.3401 45.8541 30.8653C50.4956 31.2463 55.4286 35.0235 55.4286 41.2737C55.4286 45.4977 52.7542 49.4044 48.7737 50.9955C47.5263 51.4936 46.2871 51.7029 45.0682 51.7029Z"/></svg>
